<svg width="40" height="40" viewBox="0 0 40 40" fill="none" xmlns="http://www.w3.org/2000/svg">
<path d="M22.6516 19.9998L30.0735 12.578C30.4258 12.2263 30.6239 11.7492 30.6243 11.2515C30.6248 10.7538 30.4275 10.2763 30.0759 9.92405C29.7242 9.57181 29.2471 9.37368 28.7494 9.37324C28.2517 9.3728 27.7742 9.57009 27.422 9.92171L20.0001 17.3436L12.5782 9.92171C12.226 9.56947 11.7482 9.37158 11.2501 9.37158C10.7519 9.37158 10.2742 9.56947 9.92195 9.92171C9.56971 10.274 9.37183 10.7517 9.37183 11.2498C9.37183 11.748 9.56971 12.2257 9.92195 12.578L17.3438 19.9998L9.92195 27.4217C9.56971 27.7739 9.37183 28.2517 9.37183 28.7498C9.37183 29.248 9.56971 29.7257 9.92195 30.078C10.2742 30.4302 10.7519 30.6281 11.2501 30.6281C11.7482 30.6281 12.226 30.4302 12.5782 30.078L20.0001 22.6561L27.422 30.078C27.7742 30.4302 28.2519 30.6281 28.7501 30.6281C29.2482 30.6281 29.726 30.4302 30.0782 30.078C30.4304 29.7257 30.6283 29.248 30.6283 28.7498C30.6283 28.2517 30.4304 27.7739 30.0782 27.4217L22.6516 19.9998Z" fill="white"/>
</svg>
