<svg width="50" height="50" viewBox="0 0 50 50" fill="none" xmlns="http://www.w3.org/2000/svg">
<g clip-path="url(#clip0_35_458)">
<path d="M25.0006 50.0013C38.8081 50.0013 50.0013 38.8081 50.0013 25.0006C50.0013 11.1932 38.8081 0 25.0006 0C11.1932 0 0 11.1932 0 25.0006C0 38.8081 11.1932 50.0013 25.0006 50.0013Z" fill="black"/>
<path d="M21.5216 20.7865V19.422C21.0538 19.358 20.5785 19.3179 20.0931 19.3179C14.2487 19.3179 9.49414 24.0724 9.49414 29.9169C9.49414 33.5025 11.2863 36.6756 14.0192 38.5945C12.2546 36.7007 11.1722 34.1635 11.1722 31.378C11.1722 25.6176 15.7926 20.9194 21.5216 20.7852V20.7865Z" fill="#25F4EE"/>
<path d="M21.7712 36.2205C24.3786 36.2205 26.5057 34.1461 26.6023 31.5625L26.611 8.48455H30.8276C30.7398 8.01047 30.6921 7.5226 30.6921 7.02344H24.933L24.9242 30.1014C24.8276 32.6863 22.7005 34.7594 20.0931 34.7594C19.2829 34.7594 18.5191 34.5562 17.8481 34.2038C18.7286 35.4229 20.1571 36.2218 21.7724 36.2218L21.7712 36.2205Z" fill="#25F4EE"/>
<path d="M38.7036 16.3166V15.0336C37.0957 15.0336 35.597 14.5558 34.3403 13.7368C35.4591 15.0211 36.9791 15.9479 38.7036 16.3166Z" fill="#25F4EE"/>
<path d="M34.3406 13.7359C33.1152 12.3287 32.3703 10.4913 32.3703 8.4834H30.8276C31.234 10.6769 32.5358 12.5595 34.3406 13.7359Z" fill="#FE2C55"/>
<path d="M20.093 25.0773C17.4242 25.0773 15.252 27.2483 15.252 29.9184C15.252 31.7771 16.3067 33.3925 17.8468 34.2027C17.2724 33.4075 16.93 32.433 16.93 31.3795C16.93 28.7107 19.1023 26.5384 21.7711 26.5384C22.269 26.5384 22.7469 26.6212 23.1996 26.7617V20.8834C22.7318 20.8194 22.2565 20.7793 21.7711 20.7793C21.6871 20.7793 21.6043 20.7843 21.5203 20.7856V25.3006C21.0688 25.1589 20.5897 25.0773 20.0918 25.0773H20.093Z" fill="#FE2C55"/>
<path d="M38.7036 16.3169V20.793C35.7174 20.793 32.9507 19.8373 30.692 18.217V29.9196C30.692 35.7641 25.9374 40.5186 20.093 40.5186C17.8342 40.5186 15.7398 39.8062 14.019 38.5972C15.9555 40.6754 18.7134 41.9797 21.7723 41.9797C27.6168 41.9797 32.3713 37.2252 32.3713 31.3807V19.6781C34.6301 21.2997 37.3968 22.2541 40.383 22.2541V16.495C39.8073 16.495 39.2454 16.4323 38.7049 16.3169H38.7036Z" fill="#FE2C55"/>
<path d="M30.6923 29.9184V18.2158C32.951 19.8374 35.7177 20.7918 38.7039 20.7918V16.3157C36.9794 15.947 35.4594 15.0201 34.3406 13.7359C32.5359 12.5595 31.2341 10.6769 30.8277 8.4834H26.6112L26.6024 31.5614C26.5058 34.1462 24.3788 36.2194 21.7714 36.2194C20.156 36.2194 18.7275 35.4217 17.8471 34.2014C16.3057 33.39 15.2522 31.7758 15.2522 29.9172C15.2522 27.2483 17.4244 25.0761 20.0933 25.0761C20.5912 25.0761 21.069 25.1588 21.5218 25.2993V20.7843C15.7927 20.9185 11.1724 25.6166 11.1724 31.377C11.1724 34.1638 12.2547 36.6997 14.0193 38.5935C15.7413 39.8025 17.8345 40.5149 20.0933 40.5149C25.9377 40.5149 30.6923 35.7603 30.6923 29.9159V29.9184Z" fill="white"/>
</g>
<defs>
<clipPath id="clip0_35_458">
<rect width="50" height="50" fill="white"/>
</clipPath>
</defs>
</svg>
